<svg width="512" height="512" xmlns="http://www.w3.org/2000/svg">
 <defs>
  <linearGradient y2="0.5" y1="0.5" x2="1" x1="0" id="a">
   <stop stop-color="#00f1ff" offset="0"/>
   <stop stop-color="#00d8ff" offset="0.231"/>
   <stop stop-color="#00c0ff" offset="0.5138"/>
   <stop stop-color="#00b2ff" offset="0.7773"/>
   <stop stop-color="#00adff" offset="1"/>
  </linearGradient>
 </defs>
 <g>
  <title>background</title>
  <rect fill="none" id="canvas_background" height="602" width="802" y="-1" x="-1"/>
 </g>
 <g>
  <title>Layer 1</title>
  <path id="svg_1" fill="url(#a)" d="m512,256c0,141.38672 -114.61328,256 -256,256s-256,-114.61328 -256,-256s114.61328,-256 256,-256s256,114.61328 256,256z"/>
  <ellipse stroke="null" ry="250.50001" rx="251.00003" id="svg_3" cy="254.95313" cx="256.49999" stroke-opacity="null" stroke-width="null" fill="#ffffff"/>
  <path stroke="null" id="svg_2" fill="#000000" d="m190.7605,426.58594c-0.07307,0 -0.1502,0 -0.22732,0c-28.18009,-0.14844 -51.10737,-22.53906 -51.10737,-49.91406l0,-254.74219c0,-18.10938 9.80742,-34.19531 26.23971,-43.03125c16.4323,-8.83203 35.80763,-8.4375 51.83805,1.05859l215.71042,127.95313c15.28756,9.05468 24.39677,24.78515 24.36023,42.07031c-0.03654,17.28516 -9.21069,32.98047 -24.54696,41.98047l-155.94038,91.875c-7.33933,4.32422 -16.93565,2.10547 -21.43343,-4.95703c-4.49371,-7.06641 -2.188,-16.30079 5.15539,-20.62891l155.96067,-91.89063c6.11341,-3.58593 9.61663,-9.57421 9.62881,-16.4414c0.01623,-6.86328 -3.46263,-12.86719 -9.53544,-16.46875l-215.71042,-127.95313c-6.26765,-3.71093 -13.85055,-3.86328 -20.28058,-0.40625c-6.43003,3.45703 -10.27018,9.75391 -10.27018,16.83985l0,254.74218c0,11.84766 10.39603,19.86329 20.10196,19.91407c3.077,-0.00391 6.69389,-1.1211 10.38385,-3.28907c7.35151,-4.3125 16.94378,-2.07812 21.42531,4.99219c4.48559,7.07031 2.16364,16.30469 -5.18787,20.61719c-8.55714,5.02734 -17.73941,7.67969 -26.56446,7.67969zm0,0"/>
 </g>
</svg>